<svg width="1585" height="1622" viewBox="0 0 1585 1622" fill="none" xmlns="http://www.w3.org/2000/svg">
<path d="M1173.12 1516.08L751.76 903.88L691.755 816.733L202.815 106.347H413.135L808.547 680.853L868.547 768L1383.44 1516.08H1173.12ZM1470.39 1456.28L939.68 685.267L879.68 598.067L500.044 46.5332L468.58 0.826454H2.08801L115.857 166.147L620.624 899.56L680.627 986.667L1086.2 1575.95L1117.67 1621.6H1584.16L1470.39 1456.28Z" fill="black"/>
<path d="M691.755 816.733L751.76 903.88L680.627 986.667L134.851 1621.6H0.265381L620.624 899.56L691.755 816.733Z" fill="black"/>
<path d="M1528 0.826608L939.68 685.267L868.547 768L808.547 680.853L879.68 598.067L1278.2 134.213L1393.41 0.826608H1528Z" fill="black"/>
</svg>
