<svg width="131" height="133" viewBox="0 0 131 133" fill="none" xmlns="http://www.w3.org/2000/svg">
<path d="M96.5622 124.012L62.1603 74.0287L57.2612 66.9136L17.3419 8.91433H34.5134L66.7967 55.8198L71.6953 62.9348L113.734 124.012H96.5622ZM120.832 119.129L77.503 56.1801L72.6043 49.0607L41.6091 4.03089L39.0402 0.299177H0.953613L10.2423 13.7967L51.4538 73.676L56.3527 80.7878L89.4656 128.899L92.0347 132.627H130.121L120.832 119.129Z" fill="white"/>
<path d="M57.2611 66.9136L62.1602 74.0287L56.3526 80.7878L11.7929 132.627H0.804688L51.4537 73.676L57.2611 66.9136Z" fill="white"/>
<path d="M125.536 0.299188L77.5032 56.1801L71.6956 62.9348L66.7969 55.8198L72.6045 49.0607L105.142 11.1895L114.548 0.299188H125.536Z" fill="white"/>
</svg>
