<svg width="96" height="80" viewBox="0 0 96 80" fill="none" xmlns="http://www.w3.org/2000/svg">
<path d="M95.811 2.44668C95.467 1.43335 95.0564 1.16668 94.415 0.913351C93.0124 0.393351 90.6364 1.18002 90.6364 1.18002C90.6364 1.18002 6.52302 31.42 1.71769 34.7667C0.683021 35.4867 0.336368 35.9133 0.164368 36.4067C-0.666299 38.78 1.92169 39.8334 1.92169 39.8334L23.6017 46.9C23.6017 46.9 24.4097 47.02 24.6977 46.8334C29.6297 43.7134 74.319 15.5 76.8964 14.5533C77.303 14.4333 77.6044 14.5667 77.5244 14.8467C76.4924 18.4734 37.6777 52.9667 37.6777 52.9667C37.6777 52.9667 37.5297 53.1534 37.4364 53.3667L37.3857 53.34L35.363 74.8467C35.363 74.8467 34.515 81.4333 41.103 74.8467C45.751 70.1933 50.2484 66.3 52.499 64.42C59.9537 69.5667 67.9764 75.26 71.439 78.2334C73.1777 79.7267 74.6324 79.9667 75.8297 79.9267C79.1164 79.8067 80.0337 76.1933 80.0337 76.1933C80.0337 76.1933 95.3617 14.5 95.8737 6.23335C95.9244 5.42002 95.9937 4.91334 95.999 4.35334C96.0084 3.58001 95.9364 2.80668 95.811 2.44668Z" fill="black"/>
</svg>
