<svg width="167" height="136" viewBox="0 0 167 136" fill="none" xmlns="http://www.w3.org/2000/svg">
<path d="M166.672 2.93834C166.073 1.19816 165.359 0.740223 164.243 0.305179C161.803 -0.587806 157.67 0.76312 157.67 0.76312C157.67 0.76312 11.3474 52.6937 2.98807 58.4408C1.18817 59.6773 0.585141 60.41 0.285932 61.2571C-1.15908 65.3328 3.34295 67.1417 3.34295 67.1417L41.0572 79.2772C41.0572 79.2772 42.4628 79.4832 42.9638 79.1627C51.5434 73.8048 129.284 25.3546 133.768 23.7289C134.475 23.5228 134.999 23.7518 134.86 24.2326C133.065 30.4606 65.5436 89.6953 65.5436 89.6953C65.5436 89.6953 65.2862 90.0159 65.1238 90.3822L65.0356 90.3364L61.517 127.269C61.517 127.269 60.0419 138.581 71.5023 127.269C79.5879 119.278 87.4114 112.592 91.3266 109.364C104.295 118.202 118.251 127.979 124.274 133.085C127.299 135.65 129.829 136.062 131.912 135.993C137.63 135.787 139.226 129.582 139.226 129.582C139.226 129.582 165.89 23.6373 166.781 9.44111C166.869 8.04439 166.989 7.17428 166.999 6.2126C167.015 4.88457 166.89 3.55656 166.672 2.93834Z" fill="white"/>
</svg>
